<?xml version="1.0" encoding="UTF-8"?>
<svg width="29px" height="21px" viewBox="0 0 29 21" version="1.1" xmlns="http://www.w3.org/2000/svg" xmlns:xlink="http://www.w3.org/1999/xlink">
    <!-- Generator: Sketch 48.2 (47327) - http://www.bohemiancoding.com/sketch -->
    <title>Cart Icon</title>
    <desc>Created with Sketch.</desc>
    <defs></defs>
    <g id="NBF_Home" stroke="none" stroke-width="1" fill="none" fill-rule="evenodd" transform="translate(-1318.000000, -252.000000)">
        <g id="Nav" fill="#333E48">
            <g id="Group-18" transform="translate(1180.000000, 249.000000)">
                <g id="Group-17" transform="translate(138.000000, 0.000000)">
                    <path d="M24.876995,18.0957838 L10.5562247,18.0957838 C10.2878914,18.0957838 10.0470685,17.9366269 9.94985385,17.694508 L4.54135142,4.25746555 L1.30184973,4.25746555 L1.30184973,4.88697001 C1.30184973,5.23437042 1.01072661,5.5153585 0.650973701,5.5153585 C0.291090566,5.5153585 2.44249065e-15,5.23437042 2.44249065e-15,4.88697001 L2.44249065e-15,3.62822228 C2.44249065e-15,3.28091684 0.291090566,3 0.650973701,3 L4.98630554,3 C5.25457377,3 5.49542915,3.15877702 5.5927415,3.40072974 L11.0012114,16.837606 L24.4250412,16.837606 L27.4585233,8.97402392 L9.19710752,6.35561588 C8.84116376,6.30411486 8.59578297,5.98451883 8.64852503,5.64089373 C8.70195078,5.29745859 9.03376993,5.06830396 9.38779284,5.1110434 L28.4446044,7.84413559 C28.6390337,7.87212993 28.8100873,7.98320498 28.9098739,8.14604225 C29.0096932,8.31006672 29.0275017,8.50837772 28.9587743,8.68667242 L25.4873703,17.6868624 C25.3919137,17.9327566 25.1491049,18.0957838 24.876995,18.0957838 Z M13.9546037,18.4087553 C15.5501811,18.4087553 16.8482868,19.6628729 16.8482868,21.2032735 C16.8482868,22.7457637 15.5501811,24 13.9546037,24 C12.3596774,24 11.0622229,22.7457637 11.0622229,21.2032735 C11.0622229,19.6628729 12.3596774,18.4087553 13.9546037,18.4087553 Z M13.9546037,19.6669331 C13.0760903,19.6669331 12.3641377,20.3559404 12.3641377,21.2032735 C12.3641377,22.054287 13.0760903,22.7422733 13.9546037,22.7422733 C14.8343542,22.7422733 15.5463719,22.054287 15.5463719,21.2032735 C15.5463719,20.3559404 14.8343542,19.6669331 13.9546037,19.6669331 Z M21.4773137,18.4087553 C23.0729563,18.4087553 24.3711596,19.6628729 24.3711596,21.2032735 C24.3711596,22.7457637 23.0729563,24 21.4773137,24 C19.8818015,24 18.5836632,22.7457637 18.5836632,21.2032735 C18.5836632,19.6628729 19.8818015,18.4087553 21.4773137,18.4087553 Z M21.4773137,19.6669331 C20.5988004,19.6669331 19.885578,20.3559404 19.885578,21.2032735 C19.885578,22.054287 20.5988004,22.7422733 21.4773137,22.7422733 C22.3559573,22.7422733 23.0691145,22.054287 23.0691145,21.2032735 C23.0691145,20.3559404 22.3559573,19.6669331 21.4773137,19.6669331 Z" id="Cart-Icon"></path>
                </g>
            </g>
        </g>
    </g>
</svg>