<?xml version="1.0" encoding="UTF-8"?>
<svg width="18px" height="18px" viewBox="0 0 18 18" version="1.1" xmlns="http://www.w3.org/2000/svg" xmlns:xlink="http://www.w3.org/1999/xlink">
    <!-- Generator: Sketch 48.2 (47327) - http://www.bohemiancoding.com/sketch -->
    <title>chat (1)</title>
    <desc>Created with Sketch.</desc>
    <defs></defs>
    <g id="NBF_Home" stroke="none" stroke-width="1" fill="none" fill-rule="evenodd" transform="translate(-1010.000000, -179.000000)">
        <g id="Group-40" transform="translate(1010.000000, 114.000000)" fill-rule="nonzero">
            <g id="Group-11" transform="translate(0.000000, 65.000000)">
                <g id="chat-(1)">
                    <path d="M12.3414828,8.04196552 C12.2316207,8.04196552 12.1254828,7.98362069 12.069,7.88089655 C11.2015862,6.29906897 9.55055172,5.18741379 7.76048276,4.97948276 C7.59010345,4.95993103 7.46844828,4.80568966 7.488,4.63562069 C7.50755172,4.46555172 7.66117241,4.34327586 7.83186207,4.36313793 C9.81837931,4.59372414 11.6503448,5.82734483 12.6130345,7.58234483 C12.6955862,7.73255172 12.6403448,7.92124138 12.4901379,8.0037931 C12.4429655,8.02955172 12.3917586,8.04196552 12.3414828,8.04196552 Z" id="Shape" fill="#1081E0"></path>
                    <path d="M0,18 L1.25441379,14.237069 C0.618206897,13.1663793 0.251689655,11.916931 0.251689655,10.5812069 C0.25137931,6.62275862 3.46034483,3.4137931 7.4187931,3.4137931 C11.3772414,3.4137931 14.5862069,6.62275862 14.5862069,10.5812069 C14.5862069,14.5396552 11.3772414,17.7486207 7.4187931,17.7486207 C6.21434483,17.7486207 5.08034483,17.4503793 4.08413793,16.9252759 L0,18 Z" id="Shape" fill="#CB563E"></path>
                    <path d="M7.4187931,3.4137931 C11.3772414,3.4137931 14.5862069,6.62275862 14.5862069,10.5812069 C14.5862069,11.6295517 14.3593448,12.6242069 13.9549655,13.5217241 L18,14.5862069 L16.7455862,10.8232759 C17.3817931,9.75258621 17.7483103,8.50313793 17.7483103,7.16741379 C17.7486207,3.20896552 14.5396552,0 10.5812069,0 C7.65589655,0 5.14148276,1.75344828 4.02734483,4.266 C5.0372069,3.72258621 6.19168966,3.4137931 7.4187931,3.4137931 Z" id="Shape" fill="#B1B1B1"></path>
                </g>
            </g>
        </g>
    </g>
</svg>