<?xml version="1.0" encoding="UTF-8"?>
<svg width="18px" height="12px" viewBox="0 0 18 12" version="1.1" xmlns="http://www.w3.org/2000/svg" xmlns:xlink="http://www.w3.org/1999/xlink">
    <!-- Generator: Sketch 48.2 (47327) - http://www.bohemiancoding.com/sketch -->
    <title>Email Icon</title>
    <desc>Created with Sketch.</desc>
    <defs></defs>
    <g id="NBF_Home" stroke="none" stroke-width="1" fill="none" fill-rule="evenodd" transform="translate(-1307.000000, -6626.000000)">
        <g id="Group-62-Copy" transform="translate(0.000000, 6293.000000)" fill="#333E48">
            <g id="Group-60" transform="translate(992.000000, 60.000000)">
                <g id="Group-72">
                    <g id="Group-44" transform="translate(1.000000, 271.000000)">
                        <path d="M330.000924,14 L316.00939,14 C314.905347,14 314.010313,13.1050597 314.010313,12.0001333 L314.010313,5.00059996 C314.010313,4.22965136 313.902309,2.64575695 314.385328,2.37577495 C314.466331,2.68675422 315.291362,3.84567695 315.522371,4.08966069 L321.492599,9.42530498 C321.907615,9.86527565 322.462636,9.91727218 323.005657,9.87527498 C323.564678,9.91527232 324.1377,9.68128791 324.564716,9.25331645 L330.753952,4.06066262 C330.95296,3.86067595 331.537982,2.62475835 331.624986,2.37577495 C331.994,2.85174322 332,4.32764482 332,5.00059996 L332,12.0001333 C332,13.1050597 331.104966,14 330.000924,14 Z M330.753452,3.06092927 L324.565216,8.25258316 C324.1372,8.68155456 323.564178,9.1655223 323.005157,9.12552497 C322.463136,9.16652223 321.907115,8.8655423 321.493099,8.4245717 L315.521871,3.09092727 C315.23286,2.7829478 315.088854,2.39797347 315.020852,2 L323.005157,2 L331.270472,2 C331.200469,2.3869742 331.052464,2.76294914 330.753452,3.06092927 Z" id="Email-Icon"></path>
                    </g>
                </g>
            </g>
        </g>
    </g>
</svg>