<?xml version="1.0" encoding="UTF-8"?>
<svg width="24px" height="24px" viewBox="0 0 24 24" version="1.1" xmlns="http://www.w3.org/2000/svg" xmlns:xlink="http://www.w3.org/1999/xlink">
    <!-- Generator: Sketch 48.2 (47327) - http://www.bohemiancoding.com/sketch -->
    <title>Login Icon</title>
    <desc>Created with Sketch.</desc>
    <defs></defs>
    <g id="NBF_Home" stroke="none" stroke-width="1" fill="none" fill-rule="evenodd" transform="translate(-1180.000000, -251.000000)">
        <g id="Nav" fill="#CB563E" fill-rule="nonzero">
            <g id="Group-18" transform="translate(1180.000000, 249.000000)">
                <g id="Group-16">
                    <path d="M24,14.0000474 C24,7.38319618 18.6168038,2 12.0000474,2 C8.88817601,2 5.93815606,3.18605726 3.69347466,5.33962018 C3.4100687,5.61155337 3.4007767,6.06164641 3.67261507,6.34505237 C3.94445344,6.62845833 4.3946413,6.63765551 4.67804726,6.36591196 C6.65667408,4.46768937 9.25701147,3.4222447 12.0000474,3.4222447 C17.8326729,3.4222447 22.5778501,8.1674219 22.5778501,14.0000474 C22.5778501,16.6525338 21.5909071,19.1899131 19.7986892,21.1449307 C17.7988235,23.3265592 14.9563252,24.5778501 12.0000474,24.5778501 C9.16380703,24.5778501 6.43214905,23.4260215 4.44887623,21.4058652 C4.46063345,21.3550436 4.4737181,21.304791 4.48661312,21.2544435 C4.49685328,21.2143362 4.50633491,21.1739445 4.51723879,21.1341216 C4.53392646,21.0734392 4.55251046,21.0136101 4.57081001,20.9536862 C4.58171388,20.9181301 4.59157478,20.8820999 4.60295274,20.8468282 C4.62513976,20.7780864 4.64931792,20.7103875 4.67359089,20.6426887 C4.68278807,20.6170883 4.69103709,20.5910138 4.70051872,20.5655082 C4.76963982,20.3794786 4.84653585,20.1975261 4.93063792,20.0200299 C4.94324849,19.9934814 4.95699685,19.9676913 4.96989187,19.9413324 C5.00004346,19.8797018 5.03019505,19.8180712 5.06214814,19.7575784 C5.07902545,19.7256253 5.09713536,19.6944307 5.11458156,19.6627621 C5.14406944,19.6090012 5.17327286,19.5550507 5.20408816,19.5022381 C5.22390477,19.468199 5.24504881,19.4350133 5.26543432,19.4013535 C5.29539627,19.3519542 5.3251686,19.3024601 5.35626835,19.2539141 C5.37845536,19.219401 5.40168536,19.185836 5.42444128,19.151797 C5.45554103,19.105337 5.48635633,19.0586873 5.51849906,19.0129859 C5.54267722,18.9785676 5.56789836,18.9450974 5.59274023,18.9111532 C5.62497778,18.8671584 5.65702569,18.8230688 5.6902114,18.7799274 C5.71628589,18.7459831 5.74340335,18.7127974 5.77014155,18.6794221 C5.80361171,18.6376081 5.83698705,18.5956045 5.87140538,18.5546438 C5.89918656,18.5214581 5.92782108,18.4891258 5.95626598,18.4565089 C5.99106356,18.4165913 6.02586115,18.3766736 6.0616069,18.3375145 C6.09099996,18.3052769 6.12115154,18.2738927 6.1511135,18.2422241 C6.18733333,18.2041079 6.22355316,18.1659918 6.26053152,18.1287289 C6.29144164,18.0976292 6.32292066,18.067288 6.35430486,18.0368519 C6.39185212,18.0005373 6.42949419,17.9642226 6.4678948,17.9287613 C6.50022716,17.8988942 6.53303361,17.869596 6.56584005,17.8403925 C6.60461992,17.8057846 6.64368425,17.7714611 6.68322265,17.7378013 C6.71688244,17.7091668 6.75101631,17.6810063 6.78533982,17.6530355 C6.82544712,17.6203239 6.86574405,17.5878019 6.90651507,17.5559436 C6.94150229,17.5286365 6.97686877,17.5018035 7.01233007,17.4751601 C7.05366998,17.44425 7.09519953,17.4136243 7.13720316,17.3836624 C7.1735178,17.3576827 7.21002208,17.3321771 7.24681081,17.306956 C7.28928852,17.2778474 7.33205068,17.2492128 7.37509729,17.2210524 C7.41254973,17.1965898 7.45019181,17.1725064 7.48811833,17.1487075 C7.53173383,17.1214004 7.5757286,17.0946622 7.62000782,17.0683033 C7.65850325,17.0454526 7.6971883,17.0226967 7.73615781,17.0006045 C7.78091111,16.9750989 7.82613849,16.9503518 7.8715555,16.9258892 C7.9110939,16.9045555 7.95072712,16.8834115 7.99064479,16.8628364 C8.03653589,16.8392271 8.08290106,16.8164712 8.12936106,16.7939049 C8.16984762,16.7742779 8.21033419,16.7546509 8.25120002,16.7357825 C8.29832373,16.7140696 8.3458267,16.69321 8.39342449,16.67254 C8.43466958,16.6546197 8.47581986,16.6366994 8.51734941,16.6196325 C8.56570573,16.5998159 8.61444131,16.5809475 8.66327172,16.5622686 C8.70518053,16.5461499 8.7468997,16.5299363 8.78918778,16.5146708 C8.8386819,16.4967506 8.88874491,16.4800629 8.93871311,16.4632804 C8.981096,16.449058 9.02338407,16.4345511 9.06614623,16.4210871 C9.11687296,16.405158 9.16816858,16.3904615 9.21946421,16.375765 C9.26222637,16.3634388 9.30489371,16.3506386 9.34803513,16.3391659 C9.40027892,16.3252279 9.45299679,16.3127121 9.50571466,16.2999119 C9.54857163,16.2895769 9.59133379,16.278673 9.63447521,16.2690966 C9.68833088,16.2571497 9.74285026,16.2468148 9.79718,16.2361953 C9.83984735,16.2278515 9.88232505,16.2187491 9.92527684,16.2111638 C9.98131328,16.2013029 10.0379186,16.1931487 10.0943343,16.1846153 C10.1362431,16.1782626 10.1778675,16.1711513 10.2199659,16.165652 C10.2794158,16.1577822 10.3395293,16.1519036 10.3994532,16.1455509 C10.4390864,16.141379 10.47853,16.1362589 10.5183529,16.1327507 C10.5849139,16.1268721 10.6521387,16.1232691 10.7191738,16.1192868 C10.7528336,16.1172957 10.7863038,16.1142616 10.8200584,16.1127445 C10.9211326,16.1082881 11.0226809,16.1059177 11.124798,16.1059177 L12.8753916,16.1059177 C14.9300611,16.1059177 16.8587197,17.0170077 18.1668056,18.605655 C18.4163621,18.9087828 18.8646537,18.9522086 19.1677814,18.7025573 C19.4709092,18.4529059 19.514335,18.004804 19.2646837,17.7015815 C18.1497387,16.3476045 16.6610277,15.4020014 15.0091379,14.9625278 C15.9492417,14.1295665 16.5433607,12.9144954 16.5433607,11.5626993 C16.5433607,9.05755745 14.505284,7.01938599 12.0000474,7.01938599 C9.49481078,7.01938599 7.45673413,9.05746264 7.45673413,11.5626993 C7.45673413,12.9144954 8.05085315,14.1294717 8.99086208,14.962433 C8.96753726,14.9686909 8.94402282,14.9745695 8.92069801,14.9809222 C8.82322684,15.0077552 8.7265142,15.0364845 8.63046527,15.0668257 C8.61870805,15.0705236 8.60666638,15.0737473 8.59490915,15.0774452 C8.48719782,15.1119583 8.38062429,15.1488419 8.27471446,15.1875269 C8.24171839,15.1995686 8.20929121,15.2128429 8.17648476,15.2253586 C8.10395028,15.2529502 8.03151062,15.280921 7.9599243,15.3105985 C7.92019627,15.3270017 7.88103713,15.3443531 7.84159355,15.36142 C7.77759253,15.3891064 7.71368634,15.4170772 7.65053868,15.4462806 C7.60929358,15.4653387 7.56852256,15.4849657 7.52765673,15.5046875 C7.46678466,15.5340805 7.40638667,15.5640425 7.34627313,15.5948578 C7.30569174,15.6156226 7.26520518,15.6366718 7.22500306,15.6581951 C7.1647947,15.6903378 7.10515524,15.7234287 7.04580023,15.7570885 C7.00749444,15.7788014 6.96909383,15.8003247 6.93116731,15.8226066 C6.86877817,15.8593005 6.80724239,15.897227 6.74580142,15.9355328 C6.71233126,15.9563924 6.67857665,15.9766831 6.64539094,15.9980168 C6.56915862,16.0470368 6.49396929,16.0977635 6.41944367,16.1492488 C6.40237673,16.161006 6.38493053,16.1720995 6.36795841,16.1840464 C6.27693475,16.2479526 6.18733333,16.3137551 6.09896453,16.3812643 C6.07336412,16.4007965 6.04852225,16.4213716 6.02311148,16.4411882 C5.96091197,16.4899238 5.89890211,16.5389438 5.83803003,16.5893861 C5.80569767,16.6162191 5.77402902,16.6439055 5.74217074,16.6712126 C5.68926324,16.71644 5.63664018,16.7619518 5.58496529,16.8085066 C5.55158995,16.8385634 5.51878351,16.8690942 5.48588225,16.8997199 C5.4367674,16.9454214 5.38803181,16.9915969 5.33995994,17.038531 C5.30734313,17.0703893 5.27491595,17.1024372 5.24277322,17.1348644 C5.19527025,17.1828414 5.1485258,17.2314822 5.10225544,17.280597 C5.07162977,17.3130242 5.0410041,17.3452618 5.01094733,17.3782578 C4.9630651,17.4306913 4.91622584,17.4841677 4.86967103,17.5378337 C4.84302764,17.5685542 4.81591018,17.5988954 4.78964606,17.63009 C4.73474741,17.6953236 4.6811762,17.7619794 4.62826869,17.8290146 C4.61196029,17.8496845 4.59498817,17.8696908 4.57886939,17.8905504 C4.51050683,17.9787295 4.44394578,18.0684258 4.37909142,18.1595442 C4.36183485,18.1838172 4.34552645,18.2087539 4.32855433,18.2332165 C4.28152544,18.3008206 4.23487581,18.3688039 4.18983806,18.4379249 C4.16708215,18.4729122 4.14527439,18.5084683 4.12299256,18.5438348 C4.08516085,18.6038535 4.04761359,18.6640619 4.01129894,18.7251236 C3.98806895,18.7640931 3.96559748,18.8035366 3.9430312,18.8429802 C3.90918177,18.9020508 3.87590125,18.9615006 3.84347407,19.0215194 C3.82138187,19.0623852 3.79966893,19.1035355 3.77824045,19.1447806 C3.74685625,19.2052734 3.71632539,19.2663351 3.68645826,19.3276812 C3.66626238,19.3690211 3.64616132,19.4102662 3.62662916,19.4519854 C3.59647757,19.5166501 3.5675586,19.5819786 3.53901889,19.6475915 C3.52195195,19.6868454 3.50441093,19.7257201 3.48781808,19.7653533 C3.45586498,19.8418701 3.42571339,19.919335 3.39594107,19.9970844 C3.38465793,20.0264775 3.37261626,20.0554912 3.36171238,20.0850739 C3.36010051,20.0894355 3.358299,20.0936074 3.35668712,20.097969 C2.10179321,18.3224387 1.4222447,16.2008289 1.4222447,14.0000474 C1.4222447,13.6073182 1.10385152,13.2889251 0.711122349,13.2889251 C0.31839318,13.2889251 0,13.6073182 0,14.0000474 C0,17.0093276 1.11978066,19.8880456 3.15292686,22.1059888 C5.42150197,24.5806946 8.64620478,26 11.9999526,26 C15.35389,26 18.578498,24.5806946 20.8470731,22.105894 C20.8472628,22.1057044 20.8474524,22.1054199 20.847642,22.1052303 C22.8805038,19.8873819 24,17.0089483 24,14.0000474 Z M12.0000474,8.44163068 C13.7209635,8.44163068 15.121116,9.84168836 15.121116,11.5626993 C15.121116,13.2837102 13.7210583,14.6837678 12.0000474,14.6837678 C10.2790365,14.6837678 8.87897883,13.2837102 8.87897883,11.5626993 C8.87897883,9.84168836 10.2790365,8.44163068 12.0000474,8.44163068 Z" id="Login-Icon"></path>
                </g>
            </g>
        </g>
    </g>
</svg>