<?xml version="1.0" encoding="UTF-8"?>
<svg width="15px" height="12px" viewBox="0 0 15 12" version="1.1" xmlns="http://www.w3.org/2000/svg" xmlns:xlink="http://www.w3.org/1999/xlink">
    <!-- Generator: Sketch 48.2 (47327) - http://www.bohemiancoding.com/sketch -->
    <title>Truck</title>
    <desc>Created with Sketch.</desc>
    <defs></defs>
    <g id="NBF_Home" stroke="none" stroke-width="1" fill="none" fill-rule="evenodd" transform="translate(-278.000000, -5362.000000)">
        <g id="Products/No-Pagenation" transform="translate(120.000000, 4907.000000)" fill="#000000" fill-rule="nonzero">
            <g id="Group-22-Copy-2">
                <g id="Group-14">
                    <g id="Group-10" transform="translate(0.000000, 405.000000)">
                        <g id="Group-34" transform="translate(158.000000, 43.000000)">
                            <g id="Truck" transform="translate(7.500000, 13.000000) scale(-1, 1) translate(-7.500000, -13.000000) translate(0.000000, 7.000000)">
                                <path d="M14.6396274,9.13852691 L14.6396274,6.58215297 C14.6396274,6.20141643 14.5351929,5.82067989 14.3781325,5.49433428 L12.8132491,2.7203966 C12.6563195,2.39405099 12.2902593,2.17648725 11.9241992,2.17648725 L9.57074526,2.17648725 C9.20468512,2.17648725 8.89082589,2.50283286 8.89082589,2.88356941 L8.89082589,8.70339943 L8.36783613,8.70339943 L8.36783613,1.08866856 C8.36783613,0.490368272 7.89721072,0.000849858357 7.32185661,0.000849858357 L0,0.000849858357 L0,9.79121813 L1.56896927,9.79121813 C1.83046415,8.86657224 2.61494879,8.15949008 3.60856396,8.15949008 C4.60230987,8.15949008 5.43902811,8.86657224 5.64828939,9.79121813 L9.46614731,9.79121813 C9.72764219,8.86657224 10.5121268,8.15949008 11.505742,8.15949008 C12.342591,8.15949008 13.0223469,8.6490085 13.3362061,9.35609065 C13.4931358,9.62804533 13.7506755,9.79121813 14.0121704,9.79121813 C14.3781325,9.79121813 14.6919917,9.46487252 14.6396274,9.13852691 Z M9.9368054,5.98385269 L9.9368054,3.26430595 L12.0287644,3.26430595 L13.5453694,5.98385269 L9.9368054,5.98385269 Z" id="Shape"></path>
                                <path d="M11.5057747,8.70339943 C10.6167248,8.70339943 9.9368054,9.41048159 9.9368054,10.3351275 C9.9368054,11.2597734 10.6167248,11.9668555 11.5057747,11.9668555 C12.3948246,11.9668555 13.074744,11.2597734 13.074744,10.3351275 C13.074744,9.41048159 12.3948246,8.70339943 11.5057747,8.70339943 Z M11.5057747,11.0966006 C11.0873502,11.0966006 10.7736544,10.770255 10.7736544,10.3351275 C10.7736544,9.9 11.0873829,9.57365439 11.5057747,9.57365439 C11.9241992,9.57365439 12.237895,9.9 12.237895,10.3351275 C12.237895,10.770255 11.9241992,11.0966006 11.5057747,11.0966006 Z" id="Shape"></path>
                                <path d="M3.66092831,8.70339943 C2.7718784,8.70339943 2.09195903,9.41048159 2.09195903,10.3351275 C2.09195903,11.2597734 2.7718784,11.9668555 3.66092831,11.9668555 C4.54997821,11.9668555 5.22989758,11.2597734 5.22989758,10.3351275 C5.22989758,9.41048159 4.54997821,8.70339943 3.66092831,8.70339943 Z M3.66092831,11.0966006 C3.24250381,11.0966006 2.92880802,10.770255 2.92880802,10.3351275 C2.92880802,9.9 3.2425365,9.57365439 3.66092831,9.57365439 C4.07932011,9.57365439 4.39304859,9.9 4.39304859,10.3351275 C4.39304859,10.770255 4.0793528,11.0966006 3.66092831,11.0966006 Z" id="Shape"></path>
                                <ellipse id="Oval" cx="3.68789497" cy="10.3631728" rx="1" ry="1"></ellipse>
                                <ellipse id="Oval" cx="11.5327413" cy="10.3631728" rx="1" ry="1"></ellipse>
                            </g>
                        </g>
                    </g>
                </g>
            </g>
        </g>
    </g>
</svg>