<?xml version="1.0" encoding="UTF-8"?>
<svg width="18px" height="12px" viewBox="0 0 18 12" version="1.1" xmlns="http://www.w3.org/2000/svg" xmlns:xlink="http://www.w3.org/1999/xlink">
    <!-- Generator: sketchtool 49 (51002) - http://www.bohemiancoding.com/sketch -->
    <title>8B15E2C0-4F96-4560-B1C9-5BA7E95A6565</title>
    <desc>Created with sketchtool.</desc>
    <defs></defs>
    <g id="UI-Kit" stroke="none" stroke-width="1" fill="none" fill-rule="evenodd">
        <g id="UI-Kit_V1.2" transform="translate(-479.000000, -8870.000000)" fill="#333E48">
            <path d="M495.000924,8882 L481.00939,8882 C479.905347,8882 479.010313,8881.10506 479.010313,8880.00013 L479.010313,8873.0006 C479.010313,8872.22965 478.902309,8870.64576 479.385328,8870.37577 C479.466331,8870.68675 480.291362,8871.84568 480.522371,8872.08966 L486.492599,8877.4253 C486.907615,8877.86528 487.462636,8877.91727 488.005657,8877.87527 C488.564678,8877.91527 489.1377,8877.68129 489.564716,8877.25332 L495.753952,8872.06066 C495.95296,8871.86068 496.537982,8870.62476 496.624986,8870.37577 C496.994,8870.85174 497,8872.32764 497,8873.0006 L497,8880.00013 C497,8881.10506 496.104966,8882 495.000924,8882 Z M495.753452,8871.06093 L489.565216,8876.25258 C489.1372,8876.68155 488.564178,8877.16552 488.005157,8877.12552 C487.463136,8877.16652 486.907115,8876.86554 486.493099,8876.42457 L480.521871,8871.09093 C480.23286,8870.78295 480.088854,8870.39797 480.020852,8870 L488.005157,8870 L496.270472,8870 C496.200469,8870.38697 496.052464,8870.76295 495.753452,8871.06093 Z" id="Email-Icon"></path>
        </g>
    </g>
</svg>