<?xml version="1.0" encoding="UTF-8"?>
<svg width="16px" height="13px" viewBox="0 0 16 13" version="1.1" xmlns="http://www.w3.org/2000/svg" xmlns:xlink="http://www.w3.org/1999/xlink">
    <!-- Generator: sketchtool 49 (51002) - http://www.bohemiancoding.com/sketch -->
    <title>85DEA81B-369B-4909-9311-6389FCC467DC</title>
    <desc>Created with sketchtool.</desc>
    <defs></defs>
    <g id="UI-Kit" stroke="none" stroke-width="1" fill="none" fill-rule="evenodd">
        <g id="UI-Kit_V1.2" transform="translate(-165.000000, -8870.000000)" fill="#333E48">
            <path d="M179.362977,8873.23538 C179.368981,8873.37831 179.370982,8873.52124 179.370982,8873.65767 C179.370982,8877.9975 176.069585,8883 170.031812,8883 C168.24242,8882.99906 166.492728,8882.48624 165,8881.52524 C165.259847,8881.55357 165.521027,8881.56875 165.782489,8881.57071 C167.267472,8881.57074 168.707203,8881.07292 169.859704,8880.16092 C168.440325,8880.12688 167.203337,8879.21025 166.791119,8877.88706 C166.994997,8877.92631 167.20235,8877.94589 167.410173,8877.94553 C167.703457,8877.94654 167.995415,8877.90717 168.277382,8877.82859 C166.72728,8877.50059 165.626797,8876.15749 165.642402,8874.61269 L165.642402,8874.57371 C166.098337,8874.8227 166.608349,8874.96296 167.130665,8874.98301 C165.683352,8873.99391 165.243704,8872.09623 166.114697,8870.5977 C167.756766,8872.63742 170.222802,8873.88776 172.880258,8874.02799 C172.823696,8873.78277 172.795281,8873.53219 172.795539,8873.28086 C172.771806,8871.49205 174.241512,8870.02317 176.078257,8870 C176.990303,8870.00042 177.859858,8870.37549 178.473087,8871.03298 C179.21112,8870.89118 179.917418,8870.62281 180.559058,8870.24038 C180.318895,8870.99515 179.805429,8871.63928 179.114155,8872.05297 C179.766049,8871.97696 180.402083,8871.80386 181,8871.53973 C180.561671,8872.19485 180.007396,8872.76898 179.362977,8873.23538 L179.362977,8873.23538 Z" id="Twitter-Icon"></path>
        </g>
    </g>
</svg>