<?xml version="1.0" encoding="UTF-8"?>
<svg width="16px" height="12px" viewBox="0 0 16 12" version="1.1" xmlns="http://www.w3.org/2000/svg" xmlns:xlink="http://www.w3.org/1999/xlink">
    <!-- Generator: sketchtool 49 (51002) - http://www.bohemiancoding.com/sketch -->
    <title>B9C8082E-5BAF-4077-8312-A65618FAF42A</title>
    <desc>Created with sketchtool.</desc>
    <defs></defs>
    <g id="UI-Kit" stroke="none" stroke-width="1" fill="none" fill-rule="evenodd">
        <g id="UI-Kit_V1.2" transform="translate(-339.000000, -8870.000000)" fill="#333E48" fill-rule="nonzero">
            <path d="M345.348183,8877.69998 L345.347447,8873.20562 L349.670713,8875.46063 L345.348183,8877.69998 Z M354.840227,8872.42703 C354.840227,8872.42703 354.683901,8871.32476 354.204143,8870.83935 C353.595722,8870.20226 352.913742,8870.1991 352.600995,8870.16181 C350.362029,8870 347.003462,8870 347.003462,8870 L346.996507,8870 C346.996507,8870 343.638019,8870 341.398974,8870.16181 C341.086211,8870.1991 340.404482,8870.20226 339.795841,8870.83935 C339.316115,8871.32476 339.160008,8872.42703 339.160008,8872.42703 C339.160008,8872.42703 339,8873.72147 339,8875.0159 L339,8876.22942 C339,8877.52383 339.160008,8878.81825 339.160008,8878.81825 C339.160008,8878.81825 339.316115,8879.92054 339.795841,8880.40595 C340.404482,8881.04305 341.203973,8881.0229 341.560063,8881.08967 C342.840078,8881.21238 347,8881.25036 347,8881.25036 C347,8881.25036 350.362029,8881.2453 352.600995,8881.0835 C352.913742,8881.0462 353.595722,8881.04305 354.204143,8880.40595 C354.683901,8879.92054 354.840227,8878.81825 354.840227,8878.81825 C354.840227,8878.81825 355,8877.52383 355,8876.22942 L355,8875.0159 C355,8873.72147 354.840227,8872.42703 354.840227,8872.42703 Z" id="Youtube"></path>
        </g>
    </g>
</svg>